# xmcd CD database file
#
# Track frame offsets:
#	150
#	2900
#	20162
#	38450
#	53870
#	72905
#	90302
#	95032
#	112745
#	127810
#	148282
#	170875
#	201077
#	203107
#	221787
#
# Disc length: 2997 seconds
#
# Revision: 0
# Processed by: cddbd v1.4PL0 Copyright (c) Steve Scherf et al.
# Submitted via: CDex 1.50
#
DISCID=d70bb30f
DTITLE=Trond Granlund - Pleasure and Tears
DYEAR=1992
DGENRE=Country
TTITLE0=Interlude
TTITLE1=Pleasure and Tears
TTITLE2=This Bird Is Freed
TTITLE3=Till The Song Is Gone
TTITLE4=Remember Me
TTITLE5=Betty Jo
TTITLE6=M's Lament
TTITLE7=Texas Field
TTITLE8=I Came To Suspect
TTITLE9=Gonna Ball
TTITLE10=Sunset Road
TTITLE11=You're Gonna Find A New
TTITLE12=Intro
TTITLE13=I Ain't Living Long Like This
TTITLE14=Arabella
EXTD=YEAR: 1992
EXTT0=
EXTT1=
EXTT2=
EXTT3=
EXTT4=
EXTT5=
EXTT6=
EXTT7=
EXTT8=
EXTT9=
EXTT10=
EXTT11=
EXTT12=
EXTT13=
EXTT14=
PLAYORDER=
